<svg id="Capa_1" enable-background="new 0 0 512 512" height="50" viewBox="0 0 512 512" width="50" xmlns="http://www.w3.org/2000/svg"><g><path d="m256.001 7.611h57.303v40.472h-57.303z" fill="#df73c1"/><path d="m256.001 105.051c-4.204 0-7.611-3.408-7.611-7.611v-89.829c0-4.204 3.407-7.611 7.611-7.611s7.612 3.408 7.612 7.611v89.828c-.001 4.204-3.408 7.612-7.612 7.612z" fill="#4e5959"/><path d="m28.502 267.439h454.998v244.561h-454.998z" fill="#d0cee7"/><path d="m28.502 267.439h38.463v244.561h-38.463z" fill="#a7a2d3"/><path d="m486.506 251.819h-185.356-36.142-239.514c-11.978 0-21.688 9.71-21.688 21.688 0 11.978 9.71 21.688 21.688 21.688h239.515 36.142 185.356c11.978 0 21.688-9.71 21.688-21.688-.001-11.978-9.711-21.688-21.689-21.688z" fill="#dddaec"/><path d="m77.181 288.842c3.927 3.927 9.347 6.353 15.334 6.353h-67.022c-5.988 0-11.407-2.425-15.335-6.353-3.928-3.917-6.353-9.347-6.353-15.335 0-11.975 9.712-21.688 21.688-21.688h67.022c-11.975 0-21.688 9.712-21.688 21.688.001 5.988 2.426 11.418 6.354 15.335z" fill="#d0cee7"/><path d="m119.314 495.868v-200.672h273.374v200.672" fill="#f6f6f6"/><path d="m119.314 495.868v-200.672h19.601v200.672" fill="#ebebeb"/><path d="m119.314 323.41v-28.214h273.374v28.214" fill="#ebebeb"/><path d="m391.111 208.443c0-74.619-60.491-135.11-135.11-135.11s-135.11 60.491-135.11 135.11c-11.978 0-21.688 9.71-21.688 21.688s9.71 21.688 21.688 21.688h270.22c11.978 0 21.688-9.71 21.688-21.688s-9.71-21.688-21.688-21.688z" fill="#dddaec"/><path d="m290.11 77.677c-58.101 15.111-100.99 67.925-100.99 130.766-11.986 0-21.698 9.712-21.698 21.688 0 11.975 9.712 21.688 21.698 21.688h-68.229c-11.975 0-21.688-9.712-21.688-21.688 0-11.975 9.712-21.688 21.688-21.688 0-74.623 60.496-135.109 135.109-135.109 11.783-.001 23.21 1.512 34.11 4.343z" fill="#d0cee7"/><path d="m247.526 199.47-136.687 77.783c-15.287 8.699-9.113 32.029 8.475 32.029h273.374c17.588 0 23.762-23.33 8.475-32.029l-136.687-77.783c-5.254-2.99-11.696-2.99-16.95 0z" fill="#f6f6f6"/><path d="m150.216 309.282h-30.892c-17.598 0-23.768-23.332-8.484-32.029l136.692-77.779c5.257-2.994 11.691-2.994 16.948 0l6.982 3.968-129.72 73.811c-15.284 8.697-9.114 32.029 8.474 32.029z" fill="#ebebeb"/><path d="m403.607 481.782h-295.212c-4.392 0-7.953 3.561-7.953 7.953v14.311c0 4.392 3.561 7.953 7.953 7.953h295.212c4.392 0 7.953-3.561 7.953-7.953v-14.311c0-4.392-3.56-7.953-7.953-7.953z" fill="#dddaec"/><g fill="#beb9dd"><path d="m175.366 336.929c-12.8 0-23.176 10.376-23.176 23.176v121.676h46.353v-121.675c0-12.8-10.377-23.177-23.177-23.177z"/><path d="m256.001 336.929c-12.8 0-23.176 10.376-23.176 23.176v121.676h46.353v-121.675c-.001-12.8-10.377-23.177-23.177-23.177z"/><path d="m336.636 336.929c-12.8 0-23.176 10.376-23.176 23.176v121.676h46.353v-121.675c-.001-12.8-10.377-23.177-23.177-23.177z"/></g><path d="m445.038 332.101h38.463v144.853h-38.463z" fill="#938bc6"/><path d="m28.502 332.101h38.463v144.853h-38.463z" fill="#938bc6"/></g></svg>